<?xml version="1.0" encoding="utf-8"?>
<!-- Generator: Adobe Illustrator 16.0.3, SVG Export Plug-In . SVG Version: 6.00 Build 0)  -->
<!DOCTYPE svg PUBLIC "-//W3C//DTD SVG 1.1//EN" "http://www.w3.org/Graphics/SVG/1.1/DTD/svg11.dtd">
<svg version="1.1" id="Layer_2" xmlns="http://www.w3.org/2000/svg" xmlns:xlink="http://www.w3.org/1999/xlink" x="0px" y="0px"
	 width="189.333px" height="242.441px" viewBox="0 0 189.333 242.441" style="enable-background:new 0 0 189.333 242.441;"
	 xml:space="preserve">
<style type="text/css">
<![CDATA[
	.st0{fill:none;stroke:#000000;stroke-miterlimit:10;}
]]>
</style>
<path class="st0" d="M126.333,0.333c-3.164,3.39,0.1,7.805,1.336,10.988c6.463,16.655,21.371,20.997,35.896,28.335
	c7.85,3.967,22.542,8.214,24.842,17.669c0.84,3.454,0.462,7.983-0.399,11.41c-2.165,8.608-6.039,16.686-10.183,24.493
	c-3.072,5.79-6.434,11.852-12.165,15.41c-17.705,10.99-31.878,26.645-49.245,38.101c-17.688,11.668-42.159,16.785-52.74,36.994
	c-7.226,13.8-15.95,27.072-20.239,42.194c-1.771,6.244-5.692,11.116-11.731,14.303c-9.28,4.896-22.093,0.135-32.038,0.103"/>
</svg>
