<?xml version="1.0" encoding="utf-8"?>
<!-- Generator: Adobe Illustrator 16.0.3, SVG Export Plug-In . SVG Version: 6.00 Build 0)  -->
<!DOCTYPE svg PUBLIC "-//W3C//DTD SVG 1.1//EN" "http://www.w3.org/Graphics/SVG/1.1/DTD/svg11.dtd">
<svg version="1.1" xmlns="http://www.w3.org/2000/svg" xmlns:xlink="http://www.w3.org/1999/xlink" x="0px" y="0px" width="1337px"
	 height="1080px" viewBox="0 0 1337 1080" style="enable-background:new 0 0 1337 1080;" xml:space="preserve">
<style type="text/css">
<![CDATA[
	.st0{fill:none;stroke:#FFFFFF;stroke-width:2;stroke-miterlimit:10;}
	.st1{fill:#FFFFFF;}
]]>
</style>
<g id="Layer_2">
	<path class="st0" d="M654,527c8.082,14.915,17.959,29.778,34.995,35.055c8.647,2.678,20.338,2.37,26.032,10.915
		c5.485,8.233-3.776,28.304-3.776,28.304s-17.757,34.597-28.005,47.92c-11.633,15.123-30.973,18.12-46.213,27.81
		c-21.249,13.509-42.199,28.945-52.781,52.29c-3.998,8.82-6.217,18.755-13.254,24.729C557.636,765.366,535.634,775.614,518,770"/>
	<path class="st1" d="M656.5,514.25l-50.5-26l7.5-17.5h38l5-15.5h35l4.5,39.5l9.5,0.5l-5,19H656.5z"/>
</g>
<g id="Layer_3">
	<path class="st0" d="M514,769.5c-3.405-4.306-7.856-6.727-11-11.525c-2.49-3.802-5.093-7.255-8-11.002
		c-9.84-12.685-19.073-24.657-26.986-38.846c-6.335-11.36-12.483-24.613-11.038-38.222c0.951-8.955,2.824-18.638,7.524-26.438
		c3.139-5.209,6.82-6.728,7.486-12.982c0.802-7.535,1.586-13.527-3.791-18.985c-6.312-6.407-11.58-12.207-18.804-17.5
		c-7.994-5.856-16.423-12.687-23.903-19.5c-5.307-4.833-11.159-10.723-10.487-18.5"/>
	<path class="st1" d="M414.947,535c0,0,30.053-47,40.053-36.5s9.474,28.5,9.474,28.5L414.947,535z"/>
</g>
</svg>
